<svg id="Layer_1" data-name="Layer 1" xmlns="http://www.w3.org/2000/svg" viewBox="0 0 346.61 21.16"><defs><style>.cls-1{fill:#005388;}.cls-2{fill:#a8aaad;}</style></defs><title>sxmw-brand</title><path class="cls-1" d="M40,7.81H25.5L25,8.22V21.1h4V16.24l.36-.36H40c2.69,0,3.94-.72,3.94-2.59V10.35c0-1.82-1.25-2.54-3.94-2.54m0,4.76c0,.88-.56,1-1.86,1H29.38L29,13.24V10.5l.36-.36h8.79c1.24,0,1.86.15,1.86,1v1.4Z"/><polyline class="cls-1" points="51.26 10.24 54.73 15.31 54.52 15.78 46.86 15.78 44.9 18.21 56.28 18.21 57.11 18.67 58.86 21.1 63.47 21.1 53.38 7.66"/><polyline class="cls-1" points="96.94 18.52 96.94 14.9 97.35 14.54 105.06 14.54 105.06 12.26 92.85 12.26 92.85 21.1 110.85 21.1 110.85 18.83 97.4 18.83"/><rect class="cls-1" x="92.85" y="7.81" width="18.16" height="2.48"/><path class="cls-1" d="M72.62,10.19H87.26C87.05,8.33,85.87,7.81,83,7.81H72.47c-3.31,0-4.35.62-4.35,3.16v7c0,2.48,1,3.16,4.35,3.16H83c3,0,4.08-.57,4.19-2.49H72.62l-.41-.41V10.5"/><path class="cls-1" d="M15.16,13H4.55l-.31-.36V10.35l.31-.26H18.88l.21-.47C18.62,8.38,17.33,7.76,15,7.76H5c-3.31,0-4.35.62-4.35,3.15v1.5c0,2.49,1,3.16,4.35,3.16h10.6l.31.31v2.38l-.26.36H.36s-.36.21-.36.26c.26,1.76,1.45,2.22,4.29,2.22H15.16c3.31,0,4.39-.62,4.39-3.15V16.14c0-2.48-1.08-3.16-4.39-3.16"/><path class="cls-1" d="M122.44,7.76h-6l-.32.62,6.63,4.86c1.24-.72,2.63-1.45,4.08-2.17"/><path class="cls-1" d="M127.82,16.86l5.84,4.24h6l.26-.56-8.69-6.37c-1.14.88-2.33,1.76-3.41,2.69"/><path class="cls-2" d="M121.56,21.1h-5.44l-.46-.72C119.33,16.81,135.78,1.6,171.52,0c0,0-30,1-50,21.1"/><polygon class="cls-2" points="162.19 16.93 157.35 10.14 155.89 10.14 155.89 18.19 157 18.19 157 11.53 161.67 18.1 161.73 18.19 162.66 18.19 167.39 11.53 167.39 18.19 168.5 18.19 168.5 10.14 167.04 10.14 162.19 16.93"/><rect class="cls-2" x="176.28" y="10.15" width="1.11" height="8.04"/><path class="cls-2" d="M194.13,14a2.48,2.48,0,0,0-1-.45,6.75,6.75,0,0,0-1.48-.14h-4.12a5.42,5.42,0,0,1-1-.07,1.34,1.34,0,0,1-.52-.2.69.69,0,0,1-.21-.32,2.23,2.23,0,0,1-.06-.56,1.88,1.88,0,0,1,.06-.51.57.57,0,0,1,.22-.29,1.5,1.5,0,0,1,.53-.2,6.19,6.19,0,0,1,1-.07h6.85V10.15h-7a5.08,5.08,0,0,0-1.26.13,2.41,2.41,0,0,0-.88.42,1.56,1.56,0,0,0-.5.69,2.48,2.48,0,0,0-.14.89,2.94,2.94,0,0,0,.14,1,1.5,1.5,0,0,0,.49.71,2.16,2.16,0,0,0,.88.39,5.67,5.67,0,0,0,1.26.12h4.05a7.22,7.22,0,0,1,1.14.07,1.76,1.76,0,0,1,.67.21.75.75,0,0,1,.3.36,1.88,1.88,0,0,1,.1.68,2.23,2.23,0,0,1-.09.71.75.75,0,0,1-.3.36,1.93,1.93,0,0,1-.65.19c-.3,0-.68.05-1.13.05h-6.6v1.08h6.73a6.91,6.91,0,0,0,1.39-.12,2.52,2.52,0,0,0,1-.39,1.76,1.76,0,0,0,.6-.77,3,3,0,0,0,.18-1.11,3.4,3.4,0,0,0-.14-1A1.7,1.7,0,0,0,194.13,14Z"/><path class="cls-2" d="M210.44,14a2.48,2.48,0,0,0-1-.45,6.75,6.75,0,0,0-1.48-.14h-4.12a5.42,5.42,0,0,1-1-.07,1.34,1.34,0,0,1-.52-.2.69.69,0,0,1-.21-.32,2.23,2.23,0,0,1-.06-.56,1.88,1.88,0,0,1,.06-.51.57.57,0,0,1,.22-.29,1.43,1.43,0,0,1,.53-.2,6.19,6.19,0,0,1,1-.07h6.85V10.15h-7a5.22,5.22,0,0,0-1.27.13,2.43,2.43,0,0,0-.87.42,1.56,1.56,0,0,0-.5.69,2.48,2.48,0,0,0-.14.89,2.94,2.94,0,0,0,.14,1,1.5,1.5,0,0,0,.49.71,2.16,2.16,0,0,0,.88.39,5.67,5.67,0,0,0,1.26.12h4.05a7.22,7.22,0,0,1,1.14.07,1.76,1.76,0,0,1,.67.21.75.75,0,0,1,.3.36,1.88,1.88,0,0,1,.1.68,2.23,2.23,0,0,1-.09.71.75.75,0,0,1-.3.36,1.93,1.93,0,0,1-.65.19c-.3,0-.68.05-1.14.05h-6.59v1.08h6.73a6.91,6.91,0,0,0,1.39-.12,2.52,2.52,0,0,0,1-.39,1.76,1.76,0,0,0,.6-.77,3,3,0,0,0,.18-1.11,3.09,3.09,0,0,0-.15-1A1.61,1.61,0,0,0,210.44,14Z"/><rect class="cls-2" x="218.35" y="10.15" width="1.11" height="8.04"/><path class="cls-2" d="M237.37,11.27a3,3,0,0,0-1.31-.83,6.32,6.32,0,0,0-2.11-.29H231a6.21,6.21,0,0,0-2.1.29A2.77,2.77,0,0,0,227,12.57a7.23,7.23,0,0,0-.16,1.6,7.78,7.78,0,0,0,.15,1.58,2.85,2.85,0,0,0,1.94,2.14,6.31,6.31,0,0,0,2.12.3H234a6.27,6.27,0,0,0,2.12-.3,3.08,3.08,0,0,0,1.31-.85,2.89,2.89,0,0,0,.63-1.29,7.75,7.75,0,0,0,.16-1.58,7.2,7.2,0,0,0-.17-1.6A2.93,2.93,0,0,0,237.37,11.27Zm-.31,2.9a6.41,6.41,0,0,1-.13,1.32,2,2,0,0,1-.45.91,2.18,2.18,0,0,1-1,.56,5.93,5.93,0,0,1-1.68.19h-2.71a6,6,0,0,1-1.68-.19,2.14,2.14,0,0,1-.95-.56,2,2,0,0,1-.46-.91,6.46,6.46,0,0,1-.12-1.32,6.19,6.19,0,0,1,.13-1.37,1.93,1.93,0,0,1,.46-.9,2.23,2.23,0,0,1,1-.53,6,6,0,0,1,1.67-.19h2.71a6,6,0,0,1,1.67.19,2.11,2.11,0,0,1,1,.53,1.94,1.94,0,0,1,.47.9A6.85,6.85,0,0,1,237.06,14.17Z"/><polygon class="cls-2" points="253.68 16.89 246.29 10.2 246.23 10.14 244.97 10.14 244.97 18.19 246.08 18.19 246.08 11.44 253.49 18.14 253.54 18.19 254.79 18.19 254.79 10.14 253.68 10.14 253.68 16.89"/><polygon class="cls-2" points="280.56 16.91 277.55 10.14 276.39 10.14 273.38 16.91 270.69 10.14 269.47 10.14 272.68 18.19 274.02 18.19 276.97 11.53 279.92 18.19 281.27 18.19 284.47 10.14 283.26 10.14 280.56 16.91"/><path class="cls-2" d="M294.89,10.15h-1.2l-5.24,8h1.3l1.17-1.81h6.72l1.19,1.81h1.3l-5.18-8Zm-3.26,5.14,2.66-4,2.64,4Z"/><polygon class="cls-2" points="303.6 11.22 308.21 11.22 308.21 18.19 309.32 18.19 309.32 11.22 313.96 11.22 313.96 10.14 303.6 10.14 303.6 11.22"/><path class="cls-2" d="M321.59,10.44a2.86,2.86,0,0,0-1.3.84,2.93,2.93,0,0,0-.63,1.3,7.74,7.74,0,0,0-.15,1.59,7.41,7.41,0,0,0,.16,1.62,2.89,2.89,0,0,0,.63,1.29,3.13,3.13,0,0,0,1.31.82,6.52,6.52,0,0,0,2.12.29h5.93V17.11h-5.82a6.31,6.31,0,0,1-1.66-.18,2.12,2.12,0,0,1-.95-.52,1.79,1.79,0,0,1-.47-.88,6,6,0,0,1-.14-1.36,6.57,6.57,0,0,1,.13-1.35,2,2,0,0,1,.46-.88,2,2,0,0,1,1-.53,5.85,5.85,0,0,1,1.67-.19h5.82V10.15h-5.93A6.43,6.43,0,0,0,321.59,10.44Z"/><polygon class="cls-2" points="345.5 10.14 345.5 13.57 337.9 13.57 337.9 10.14 336.79 10.14 336.79 18.19 337.9 18.19 337.9 14.65 345.5 14.65 345.5 18.19 346.61 18.19 346.61 10.14 345.5 10.14"/></svg>